<mxfile host="app.diagrams.net" modified="2023-05-08T10:24:26.133Z" agent="Mozilla/5.0 (Macintosh; Intel Mac OS X 10_15_7) AppleWebKit/537.36 (KHTML, like Gecko) Chrome/112.0.0.0 Safari/537.36" etag="GmNDhUHob0Rq7ZKv__2p" version="21.2.6" type="github">
  <diagram name="Page-1" id="9361dd3d-8414-5efd-6122-117bd74ce7a7">
    <mxGraphModel dx="1134" dy="737" grid="1" gridSize="10" guides="1" tooltips="1" connect="1" arrows="1" fold="1" page="0" pageScale="1.5" pageWidth="826" pageHeight="1169" background="none" math="0" shadow="0">
      <root>
        <mxCell id="0" />
        <mxCell id="1" parent="0" />
        <mxCell id="42" value="" style="fillColor=#CC4125;strokeColor=#660000" parent="1" vertex="1">
          <mxGeometry x="130" y="130" width="10" height="340" as="geometry" />
        </mxCell>
        <mxCell id="73aayPsijSgUop5nwme1-92" value="" style="html=1;points=[];perimeter=orthogonalPerimeter;outlineConnect=0;targetShapes=umlLifeline;portConstraint=eastwest;newEdgeStyle={&quot;edgeStyle&quot;:&quot;elbowEdgeStyle&quot;,&quot;elbow&quot;:&quot;vertical&quot;,&quot;curved&quot;:0,&quot;rounded&quot;:0};" vertex="1" parent="1">
          <mxGeometry x="270" y="130" width="10" height="370" as="geometry" />
        </mxCell>
        <mxCell id="73aayPsijSgUop5nwme1-93" value="Lifeline1" style="shape=umlLifeline;perimeter=lifelinePerimeter;whiteSpace=wrap;html=1;container=1;dropTarget=0;collapsible=0;recursiveResize=0;outlineConnect=0;portConstraint=eastwest;newEdgeStyle={&quot;edgeStyle&quot;:&quot;elbowEdgeStyle&quot;,&quot;elbow&quot;:&quot;vertical&quot;,&quot;curved&quot;:0,&quot;rounded&quot;:0};" vertex="1" parent="1">
          <mxGeometry x="350" y="240" width="100" height="430" as="geometry" />
        </mxCell>
        <mxCell id="73aayPsijSgUop5nwme1-103" value="Lifeline2" style="shape=umlLifeline;perimeter=lifelinePerimeter;whiteSpace=wrap;html=1;container=1;dropTarget=0;collapsible=0;recursiveResize=0;outlineConnect=0;portConstraint=eastwest;newEdgeStyle={&quot;edgeStyle&quot;:&quot;elbowEdgeStyle&quot;,&quot;elbow&quot;:&quot;vertical&quot;,&quot;curved&quot;:0,&quot;rounded&quot;:0};" vertex="1" parent="1">
          <mxGeometry x="570" y="10" width="100" height="300" as="geometry" />
        </mxCell>
        <mxCell id="73aayPsijSgUop5nwme1-104" value="" style="html=1;points=[];perimeter=orthogonalPerimeter;outlineConnect=0;targetShapes=umlLifeline;portConstraint=eastwest;newEdgeStyle={&quot;edgeStyle&quot;:&quot;elbowEdgeStyle&quot;,&quot;elbow&quot;:&quot;vertical&quot;,&quot;curved&quot;:0,&quot;rounded&quot;:0};fillColor=#808080;" vertex="1" parent="73aayPsijSgUop5nwme1-103">
          <mxGeometry x="45" y="90" width="10" height="120" as="geometry" />
        </mxCell>
        <mxCell id="73aayPsijSgUop5nwme1-105" value="Lifeline1" style="shape=umlLifeline;perimeter=lifelinePerimeter;whiteSpace=wrap;html=1;container=1;dropTarget=0;collapsible=0;recursiveResize=0;outlineConnect=0;portConstraint=eastwest;newEdgeStyle={&quot;edgeStyle&quot;:&quot;elbowEdgeStyle&quot;,&quot;elbow&quot;:&quot;vertical&quot;,&quot;curved&quot;:0,&quot;rounded&quot;:0};" vertex="1" parent="1">
          <mxGeometry x="450" y="10" width="100" height="300" as="geometry" />
        </mxCell>
        <mxCell id="73aayPsijSgUop5nwme1-106" value="" style="html=1;points=[];perimeter=orthogonalPerimeter;outlineConnect=0;targetShapes=umlLifeline;portConstraint=eastwest;newEdgeStyle={&quot;edgeStyle&quot;:&quot;elbowEdgeStyle&quot;,&quot;elbow&quot;:&quot;vertical&quot;,&quot;curved&quot;:0,&quot;rounded&quot;:0};" vertex="1" parent="73aayPsijSgUop5nwme1-105">
          <mxGeometry x="45" y="90" width="10" height="120" as="geometry" />
        </mxCell>
        <mxCell id="73aayPsijSgUop5nwme1-98" value="window" style="rounded=0;dashed=0;whiteSpace=wrap;html=1;" vertex="1" parent="1">
          <mxGeometry x="670" y="100" width="100" height="30" as="geometry" />
        </mxCell>
        <mxCell id="73aayPsijSgUop5nwme1-116" value="isEdit=true&lt;br&gt;设置面板为 node 1&lt;br&gt;监听其它node 的Click:remove事件" style="edgeStyle=orthogonalEdgeStyle;rounded=0;orthogonalLoop=1;jettySize=auto;html=1;entryX=0;entryY=0.5;entryDx=0;entryDy=0;" edge="1" parent="1" target="73aayPsijSgUop5nwme1-125">
          <mxGeometry relative="1" as="geometry">
            <mxPoint x="800" y="180" as="sourcePoint" />
            <mxPoint x="885" y="180" as="targetPoint" />
          </mxGeometry>
        </mxCell>
        <mxCell id="73aayPsijSgUop5nwme1-120" value="" style="edgeStyle=orthogonalEdgeStyle;rounded=0;orthogonalLoop=1;jettySize=auto;html=1;exitX=0.5;exitY=1;exitDx=0;exitDy=0;" edge="1" parent="1" source="73aayPsijSgUop5nwme1-98" target="73aayPsijSgUop5nwme1-119">
          <mxGeometry relative="1" as="geometry">
            <mxPoint x="720" y="210" as="sourcePoint" />
          </mxGeometry>
        </mxCell>
        <mxCell id="73aayPsijSgUop5nwme1-122" value="" style="edgeStyle=orthogonalEdgeStyle;rounded=0;orthogonalLoop=1;jettySize=auto;html=1;" edge="1" parent="1" source="73aayPsijSgUop5nwme1-119" target="73aayPsijSgUop5nwme1-121">
          <mxGeometry relative="1" as="geometry" />
        </mxCell>
        <mxCell id="73aayPsijSgUop5nwme1-119" value="" style="rounded=0;dashed=0;" vertex="1" parent="1">
          <mxGeometry x="715" y="290" width="10" height="60" as="geometry" />
        </mxCell>
        <mxCell id="73aayPsijSgUop5nwme1-121" value="" style="rounded=0;dashed=0;" vertex="1" parent="1">
          <mxGeometry x="715" y="430" width="10" height="60" as="geometry" />
        </mxCell>
        <mxCell id="73aayPsijSgUop5nwme1-123" value="node 1" style="rounded=0;dashed=0;whiteSpace=wrap;html=1;" vertex="1" parent="1">
          <mxGeometry x="900" y="100" width="100" height="30" as="geometry" />
        </mxCell>
        <mxCell id="73aayPsijSgUop5nwme1-124" value="" style="edgeStyle=orthogonalEdgeStyle;rounded=0;orthogonalLoop=1;jettySize=auto;html=1;" edge="1" parent="1" source="73aayPsijSgUop5nwme1-125" target="73aayPsijSgUop5nwme1-129">
          <mxGeometry relative="1" as="geometry" />
        </mxCell>
        <mxCell id="73aayPsijSgUop5nwme1-125" value="" style="rounded=0;dashed=0;" vertex="1" parent="1">
          <mxGeometry x="945" y="150" width="10" height="60" as="geometry" />
        </mxCell>
        <mxCell id="73aayPsijSgUop5nwme1-126" value="" style="html=1;verticalAlign=bottom;startArrow=none;endArrow=none;dashed=1;rounded=0;" edge="1" parent="1" source="73aayPsijSgUop5nwme1-125" target="73aayPsijSgUop5nwme1-123">
          <mxGeometry relative="1" as="geometry" />
        </mxCell>
        <mxCell id="73aayPsijSgUop5nwme1-127" value="" style="html=1;verticalAlign=bottom;startArrow=none;endArrow=none;dashed=1;rounded=0;" edge="1" parent="1" target="73aayPsijSgUop5nwme1-125">
          <mxGeometry relative="1" as="geometry">
            <mxPoint x="950" y="240" as="sourcePoint" />
          </mxGeometry>
        </mxCell>
        <mxCell id="73aayPsijSgUop5nwme1-128" value="" style="edgeStyle=orthogonalEdgeStyle;rounded=0;orthogonalLoop=1;jettySize=auto;html=1;" edge="1" parent="1" source="73aayPsijSgUop5nwme1-129" target="73aayPsijSgUop5nwme1-130">
          <mxGeometry relative="1" as="geometry" />
        </mxCell>
        <mxCell id="73aayPsijSgUop5nwme1-143" style="edgeStyle=orthogonalEdgeStyle;rounded=0;orthogonalLoop=1;jettySize=auto;html=1;exitX=0;exitY=0.75;exitDx=0;exitDy=0;entryX=1;entryY=0.75;entryDx=0;entryDy=0;" edge="1" parent="1" source="73aayPsijSgUop5nwme1-129" target="73aayPsijSgUop5nwme1-119">
          <mxGeometry relative="1" as="geometry" />
        </mxCell>
        <mxCell id="73aayPsijSgUop5nwme1-144" value="当接收到click:remote事件时&lt;br&gt;&lt;br&gt;isEdit=false&lt;br&gt;设置面板为null&lt;br&gt;移除node 1 对 click:remote事件的监听" style="edgeLabel;html=1;align=center;verticalAlign=middle;resizable=0;points=[];" vertex="1" connectable="0" parent="73aayPsijSgUop5nwme1-143">
          <mxGeometry x="0.0623" y="2" relative="1" as="geometry">
            <mxPoint as="offset" />
          </mxGeometry>
        </mxCell>
        <mxCell id="73aayPsijSgUop5nwme1-129" value="" style="rounded=0;dashed=0;" vertex="1" parent="1">
          <mxGeometry x="945" y="290" width="10" height="60" as="geometry" />
        </mxCell>
        <mxCell id="73aayPsijSgUop5nwme1-130" value="" style="rounded=0;dashed=0;" vertex="1" parent="1">
          <mxGeometry x="945" y="430" width="10" height="60" as="geometry" />
        </mxCell>
        <mxCell id="73aayPsijSgUop5nwme1-132" value="node 2" style="rounded=0;dashed=0;whiteSpace=wrap;html=1;" vertex="1" parent="1">
          <mxGeometry x="1180" y="100" width="100" height="30" as="geometry" />
        </mxCell>
        <mxCell id="73aayPsijSgUop5nwme1-133" value="" style="edgeStyle=orthogonalEdgeStyle;rounded=0;orthogonalLoop=1;jettySize=auto;html=1;exitX=0.5;exitY=1;exitDx=0;exitDy=0;" edge="1" parent="1" source="73aayPsijSgUop5nwme1-132" target="73aayPsijSgUop5nwme1-138">
          <mxGeometry relative="1" as="geometry">
            <mxPoint x="1230" y="210" as="sourcePoint" />
          </mxGeometry>
        </mxCell>
        <mxCell id="73aayPsijSgUop5nwme1-137" value="" style="edgeStyle=orthogonalEdgeStyle;rounded=0;orthogonalLoop=1;jettySize=auto;html=1;" edge="1" parent="1" source="73aayPsijSgUop5nwme1-138" target="73aayPsijSgUop5nwme1-139">
          <mxGeometry relative="1" as="geometry" />
        </mxCell>
        <mxCell id="73aayPsijSgUop5nwme1-142" value="isEdit=true&lt;br&gt;dispatch click:remote事件&lt;br&gt;监听 其它node 的click:remove事件&lt;br&gt;设置面板为 node 2" style="edgeStyle=orthogonalEdgeStyle;rounded=0;orthogonalLoop=1;jettySize=auto;html=1;exitX=0;exitY=0.25;exitDx=0;exitDy=0;entryX=1;entryY=0.25;entryDx=0;entryDy=0;" edge="1" parent="1" source="73aayPsijSgUop5nwme1-138" target="73aayPsijSgUop5nwme1-129">
          <mxGeometry relative="1" as="geometry" />
        </mxCell>
        <mxCell id="73aayPsijSgUop5nwme1-138" value="" style="rounded=0;dashed=0;" vertex="1" parent="1">
          <mxGeometry x="1225" y="290" width="10" height="60" as="geometry" />
        </mxCell>
        <mxCell id="73aayPsijSgUop5nwme1-139" value="" style="rounded=0;dashed=0;" vertex="1" parent="1">
          <mxGeometry x="1225" y="430" width="10" height="60" as="geometry" />
        </mxCell>
      </root>
    </mxGraphModel>
  </diagram>
</mxfile>
